<svg xmlns="http://www.w3.org/2000/svg" width="32" height="32" viewBox="0 0 24 24"><path d="M9.5 6C8.629 6 1 5.914 1 3s7.629-3 8.5-3c.871 0 8.5.086 8.5 3s-7.629 3-8.5 3zm0 0" fill="#616161"/><path d="M9.5 7.5c-2.137 0-6.277-.23-8.5-1.816V7c0 2.914 7.629 3 8.5 3 .871 0 8.5-.086 8.5-3V5.684C15.777 7.27 11.637 7.5 9.5 7.5zm0 0M15.602 10.77c-.032.03-.063.058-.09.09L12.71 13.8c-1.52.188-2.871.2-3.211.2-.871 0-8.5-.078-8.5-3V9.68c2.219 1.59 6.36 1.82 8.5 1.82 1.5 0 3.98-.11 6.102-.73zm0 0M11.14 15.46l-.378.4a2.732 2.732 0 00-.75 2.128C9.77 18 9.602 18 9.5 18c-.871 0-8.5-.078-8.5-3v-1.32c2.219 1.59 6.36 1.82 8.5 1.82.46 0 1.02-.012 1.64-.04zm0 0M13 20.5v1.27c-1.64.218-3.14.23-3.5.23-.871 0-8.5-.078-8.5-3v-1.32c2.219 1.59 6.36 1.82 8.5 1.82.328 0 .71-.012 1.121-.02.629.79 1.414 1.02 2.379 1.02zm0 0M18.75 24h-2.5c-.688 0-1.25-.563-1.25-1.25V18.5h-2.25c-.3 0-.57-.18-.688-.453a.742.742 0 01.145-.813l4.75-5c.281-.3.805-.3 1.086 0l4.75 5a.742.742 0 01.145.813.748.748 0 01-.688.453H20v4.25c0 .688-.563 1.25-1.25 1.25zm0 0" fill="#616161"/></svg>